<?xml version="1.0" encoding="utf-8"?>
<!-- Generator: Adobe Illustrator 19.0.1, SVG Export Plug-In . SVG Version: 6.00 Build 0)  -->
<svg version="1.1" id="Layer_1" xmlns="http://www.w3.org/2000/svg" xmlns:xlink="http://www.w3.org/1999/xlink" x="0px" y="0px"
	 viewBox="0 0 65.3 67.5" style="enable-background:new 0 0 65.3 67.5;" xml:space="preserve">
<style type="text/css">
	.st0{fill:#F26922;}
	.st1{fill:#010101;}
</style>
<g>
	<path class="st0" d="M30.8,47.7l7.6,1.8c0.8,0.2,1.5-0.4,1.5-1.2v-9.3c0-0.6-0.4-1-0.9-1.2l-7.6-1.7c-0.7-0.2-1.4,0.4-1.4,1.2v9.2
		C29.9,47.1,30.3,47.6,30.8,47.7z"/>
	<path class="st0" d="M3,42.7c-0.7-2.5-1-5.2-1-7.8c0-7.5,2.7-14.7,7.7-20.3c0.4-0.4,0.3-1-0.1-1.4c-0.4-0.4-1-0.3-1.4,0.1
		C2.9,19.2,0,26.9,0,34.9c0,2.8,0.4,5.6,1.1,8.3c0.1,0.4,0.5,0.7,1,0.7c0.1,0,0.2,0,0.3,0C2.8,43.8,3.1,43.2,3,42.7z"/>
	<path class="st0" d="M49.8,60.3c-5.1,3.4-11,5.3-17.2,5.3c-3.9,0-7.7-0.7-11.3-2.1c-0.5-0.2-1.1,0-1.3,0.6c-0.2,0.5,0,1.1,0.6,1.3
		c3.8,1.5,7.9,2.3,12,2.3c6.6,0,12.9-1.9,18.3-5.6c0.5-0.3,0.6-0.9,0.3-1.4C50.9,60.1,50.3,60,49.8,60.3z"/>
	<path class="st0" d="M32.7,2.2c-1,0-1.9,0-2.9,0.1c-0.5,0-1,0.5-0.9,1.1c0,0.5,0.5,1,1.1,0.9c0.9-0.1,1.8-0.1,2.7-0.1
		c16.9,0,30.7,13.8,30.7,30.7c0,3.9-0.7,7.6-2.1,11.2c-0.2,0.5,0.1,1.1,0.6,1.3c0.1,0,0.2,0.1,0.4,0.1c0.4,0,0.8-0.2,0.9-0.6
		c1.5-3.8,2.2-7.8,2.2-11.9C65.3,16.8,50.7,2.2,32.7,2.2z"/>
	<path class="st0" d="M58.4,27.1C58.4,27.1,58.4,27.1,58.4,27.1c0-0.1,0-0.3-0.1-0.4c0,0,0,0,0,0c0,0,0-0.1-0.1-0.1
		c-0.1-0.1-0.1-0.2-0.2-0.2c0,0,0,0,0,0l-7.1-6.2v-6.9c0-0.5-0.4-0.9-0.9-1L31.3,9.9c-0.3,0-0.6,0-0.8,0.2c-0.2,0.2-0.3,0.5-0.3,0.8
		v6.4l-3.5,4.1c-0.1-0.4-0.2-0.8-0.3-1.2l-0.1-0.6c-1.4-6.3-1.7-11.6-1.7-13.7h1.6c0.5,0,1-0.4,1-1c0-0.3,0.1-2.5-1.3-3.9
		c-0.6-0.6-1.4-1-2.4-1L13.1,0C12,0,9.8,1.1,9.8,4.8c0,0.6,0.4,1,1,1h1.4c0,2.1-0.3,7.4-1.7,13.7l-0.2,0.7C9.3,24.3,8.6,27.6,8.1,32
		c-1.1,0.1-1.8,0.3-1.9,0.4c-0.4,0.1-0.7,0.5-0.7,0.9c-0.1,1.9,0.5,3.5,1.8,4.7c0.1,0.1,0.2,0.1,0.3,0.2c0,0.8-0.1,1.7-0.1,2.6
		c0,0,0,0,0,0C4.7,43,3,46.4,3,50.1c0,6.6,5.4,12,12,12c4.8,0,8.9-2.8,10.8-6.8c0.1,0,0.1,0.1,0.2,0.1l20.7,5c0.1,0,0.2,0,0.2,0
		c0,0,0,0,0,0c0,0,0,0,0,0c0.1,0,0.2,0,0.3-0.1c0,0,0.1,0,0.1,0c0,0,0,0,0.1,0l11-6.2c0.3-0.2,0.5-0.5,0.5-0.9L58.4,27.1z
		 M50.4,22.4l5.1,4.4l-7.3,3.3L50.4,22.4z M32.2,12l16.7,2.2v5.3l-16.7-2.7V12z M11.8,3.8C12.1,2.1,13.1,2,13.2,2h10.4
		c0.4,0,0.7,0.1,0.9,0.4c0.3,0.4,0.5,0.9,0.6,1.5H11.8z M12.2,20.6l0.2-0.7c1.5-6.5,1.7-11.9,1.8-14.1h8.4c0,2.2,0.3,7.6,1.8,14.1
		l0.1,0.6c0.2,0.9,0.4,1.8,0.6,2.7l-2.6,3.1l-0.5-1c-0.2-0.4-0.6-0.7-1.1-0.7h-5.1c-0.4,0-0.9,0.2-1.1,0.6c-1.1,2-1.9,5.4-2.3,7.6
		c-0.1,0-0.1-0.1-0.2-0.1c-0.7-0.4-1.5-0.7-2.2-0.8C10.6,27.9,11.3,24.6,12.2,20.6z M18,36.1c0,0.5-0.5,0.9-1.1,0.9
		c0,0-0.3,0-0.5,0.2c-0.2,0.2-0.3,0.5-0.4,0.9c-0.3,0-0.7-0.1-1.1-0.1c-0.3,0-0.6,0-1,0c0.1-1,0.4-1.8,1-2.4c0.9-0.8,1.9-0.8,2-0.8
		C17.6,35.1,18,35.6,18,36.1z M7.6,34c0.9-0.2,2.4-0.3,3.6,0.5c1.1,0.7,1.8,1.9,2.2,3.6c-1.3-0.1-3.4-0.4-4.7-1.7
		C8,35.8,7.7,35,7.6,34z M9.7,39.4c-0.1,0-0.1,0.1-0.2,0.1c0-0.1,0-0.1,0-0.2C9.6,39.3,9.6,39.4,9.7,39.4z M15,60.1
		c-5.5,0-10-4.5-10-10s4.5-10,10-10c5.5,0,10,4.5,10,10S20.5,60.1,15,60.1z M26.5,53.4c0.3-1.1,0.5-2.2,0.5-3.3
		c0-2.9-1.1-5.6-2.8-7.7c0-0.1,0.1-0.2,0.1-0.3V28.3l21.5,4.5l0.1,16.9c0,0.2,0,0.3,0,0.5l0,7.9L26.5,53.4z M46,30.8l-20.9-4.4
		l6.5-7.8l17,2.8L46,30.8z M47.7,32.6l8.7-3.9l0.1,6.5l-8.8,4L47.7,32.6z M47.7,41.4l8.8-4.1l0.1,6.9l-8.9,4.1L47.7,41.4z
		 M47.8,57.7l0-7.2l8.9-4.1l0.1,6.2L47.8,57.7z"/>
</g>
</svg>
